<svg width="395" height="139" viewBox="0 0 395 139" fill="none" xmlns="http://www.w3.org/2000/svg">
<path d="M232.588 90.212C226.124 90.212 220.603 89.2357 216.024 87.283C211.513 85.263 208.045 82.1993 205.621 78.092C203.264 73.9847 202.086 68.7663 202.086 62.437C202.086 56.1077 203.264 50.8893 205.621 46.782C207.978 42.6747 211.412 39.611 215.923 37.591C220.434 35.571 225.821 34.561 232.083 34.561C238.412 34.561 243.732 35.571 248.041 37.591C252.418 39.5437 255.717 42.54 257.939 46.58C260.161 50.5527 261.272 55.569 261.272 61.629V65.77H217.438C217.64 68.8673 218.313 71.426 219.458 73.446C220.603 75.466 222.286 76.981 224.508 77.991C226.73 78.9337 229.491 79.405 232.79 79.405C234.339 79.405 235.887 79.2367 237.436 78.9C239.052 78.496 240.466 77.9237 241.678 77.183C242.958 76.4423 244.001 75.4997 244.809 74.355C245.617 73.2103 246.055 71.8637 246.122 70.315H261.07C261.07 73.4123 260.397 76.2067 259.05 78.698C257.704 81.122 255.784 83.2093 253.293 84.96C250.802 86.6433 247.805 87.9563 244.304 88.899C240.803 89.7743 236.897 90.212 232.588 90.212ZM217.539 56.579H245.617C245.617 54.6263 245.281 52.9767 244.607 51.63C243.934 50.216 242.991 49.0713 241.779 48.196C240.635 47.2533 239.254 46.58 237.638 46.176C236.089 45.7047 234.339 45.469 232.386 45.469C229.491 45.469 226.966 45.873 224.811 46.681C222.724 47.489 221.074 48.7347 219.862 50.418C218.65 52.1013 217.876 54.155 217.539 56.579ZM272.17 89V35.773H284.391L285.502 43.954H286.31C287.926 41.7993 289.778 40.0487 291.865 38.702C293.952 37.288 296.208 36.2443 298.632 35.571C301.123 34.8977 303.682 34.561 306.308 34.561C310.617 34.561 314.253 35.3017 317.216 36.783C320.246 38.197 322.535 40.419 324.084 43.449C325.7 46.4117 326.508 50.216 326.508 54.862V89H311.56V57.286C311.56 55.4007 311.291 53.7847 310.752 52.438C310.281 51.0913 309.574 50.014 308.631 49.206C307.688 48.3307 306.544 47.691 305.197 47.287C303.85 46.883 302.335 46.681 300.652 46.681C298.161 46.681 295.905 47.2533 293.885 48.398C291.865 49.4753 290.215 50.9567 288.936 52.842C287.724 54.7273 287.118 56.9493 287.118 59.508V89H272.17ZM355.797 89L333.274 35.773H349.232L358.726 59.609C359.13 60.6863 359.635 62.1003 360.241 63.851C360.847 65.6017 361.453 67.386 362.059 69.204C362.732 71.022 363.305 72.7053 363.776 74.254H364.483C364.954 72.7727 365.459 71.123 365.998 69.305C366.604 67.487 367.21 65.7027 367.816 63.952C368.422 62.134 368.927 60.6863 369.331 59.609L378.724 35.773H394.177L371.452 89H355.797Z" fill="black"/>
<path d="M28.785 90.212C23.8697 90.212 19.5603 89.2357 15.857 87.283C12.221 85.263 9.393 82.1993 7.373 78.092C5.353 73.9173 4.343 68.6653 4.343 62.336C4.343 56.0067 5.353 50.7883 7.373 46.681C9.393 42.5737 12.1873 39.5437 15.756 37.591C19.3247 35.571 23.4657 34.561 28.179 34.561C30.6703 34.561 33.027 34.8303 35.249 35.369C37.471 35.9077 39.491 36.7493 41.309 37.894C43.127 38.9713 44.6757 40.3517 45.955 42.035H46.662V15.876H61.509V89H49.389L48.177 81.223H47.47C45.3153 84.3877 42.622 86.677 39.39 88.091C36.158 89.505 32.623 90.212 28.785 90.212ZM33.128 78.193C36.158 78.193 38.6493 77.587 40.602 76.375C42.622 75.163 44.137 73.446 45.147 71.224C46.157 68.9347 46.662 66.2413 46.662 63.144V61.831C46.662 59.4743 46.359 57.3533 45.753 55.468C45.2143 53.5827 44.3727 52.0003 43.228 50.721C42.0833 49.3743 40.6693 48.3643 38.986 47.691C37.3027 47.0177 35.3163 46.681 33.027 46.681C29.997 46.681 27.472 47.2533 25.452 48.398C23.432 49.5427 21.917 51.226 20.907 53.448C19.9643 55.6027 19.493 58.2623 19.493 61.427V63.447C19.493 66.6117 19.998 69.305 21.008 71.527C22.018 73.6817 23.4993 75.3313 25.452 76.476C27.472 77.6207 30.0307 78.193 33.128 78.193ZM103.099 90.212C96.6349 90.212 91.1136 89.2357 86.5349 87.283C82.0236 85.263 78.5559 82.1993 76.1319 78.092C73.7752 73.9847 72.5969 68.7663 72.5969 62.437C72.5969 56.1077 73.7752 50.8893 76.1319 46.782C78.4886 42.6747 81.9226 39.611 86.4339 37.591C90.9452 35.571 96.3319 34.561 102.594 34.561C108.923 34.561 114.243 35.571 118.552 37.591C122.929 39.5437 126.228 42.54 128.45 46.58C130.672 50.5527 131.783 55.569 131.783 61.629V65.77H87.9489C88.1509 68.8673 88.8242 71.426 89.9689 73.446C91.1136 75.466 92.7969 76.981 95.0189 77.991C97.2409 78.9337 100.002 79.405 103.301 79.405C104.85 79.405 106.398 79.2367 107.947 78.9C109.563 78.496 110.977 77.9237 112.189 77.183C113.468 76.4423 114.512 75.4997 115.32 74.355C116.128 73.2103 116.566 71.8637 116.633 70.315H131.581C131.581 73.4123 130.908 76.2067 129.561 78.698C128.214 81.122 126.295 83.2093 123.804 84.96C121.313 86.6433 118.316 87.9563 114.815 88.899C111.314 89.7743 107.408 90.212 103.099 90.212ZM88.0499 56.579H116.128C116.128 54.6263 115.791 52.9767 115.118 51.63C114.445 50.216 113.502 49.0713 112.29 48.196C111.145 47.2533 109.765 46.58 108.149 46.176C106.6 45.7047 104.85 45.469 102.897 45.469C100.002 45.469 97.4766 45.873 95.3219 46.681C93.2346 47.489 91.5849 48.7347 90.3729 50.418C89.1609 52.1013 88.3866 54.155 88.0499 56.579ZM158.942 89L136.419 35.773H152.377L161.871 59.609C162.275 60.6863 162.78 62.1003 163.386 63.851C163.992 65.6017 164.598 67.386 165.204 69.204C165.877 71.022 166.449 72.7053 166.921 74.254H167.628C168.099 72.7727 168.604 71.123 169.143 69.305C169.749 67.487 170.355 65.7027 170.961 63.952C171.567 62.134 172.072 60.6863 172.476 59.609L181.869 35.773H197.322L174.597 89H158.942Z" fill="#4E45E4"/>
<path d="M89 102C144.93 143.903 177.45 153.2 241 102" stroke="black" stroke-width="4"/>
</svg>
